# xmcd
#
# Track frame offsets: 
#        150
#        12788
#        27698
#        38745
#        53233
#        73848
#        88805
#        98575
#        110005
#        120075
#        139188
#        158020
#        170638
#        182378
#        194058
#        208288
#
# Disc length: 2960 seconds
#
# Revision: 11
# Processed by: cddbd v1.5.2PL0 Copyright (c) Steve Scherf et al.
# Submitted via: ExactAudioCopy v1.3
#
DISCID=e00b8e10
DTITLE=Various Artist - Country and Western Festival Volume 2
DYEAR=1993
DGENRE=Country
TTITLE0=Lynn Anderson - Rose Garden
TTITLE1=Nitty Gritty Dirt Band - Home Again In My Heart
TTITLE2=Tammy Wynette - D.I.V.O.R.C.E.
TTITLE3=Sweethearts Of The Rodeo - Chains Of Gold
TTITLE4=Tanya Tucker - Texas When I Die
TTITLE5=George Jones - I Always Get Lucky With You
TTITLE6=Gene Watson - Pick The Wildwood Flowers
TTITLE7=Kathy Mattea - Street Talk
TTITLE8=Bellamy Brothers - Sugar Daddy
TTITLE9=Freddie Fender - Secret Love
TTITLE10=Gail Davies - I'll Be Your Baby
TTITLE11=Mel Tillis - In The Middle Of The Night
TTITLE12=Tex Williams - Smoke, Smoke, Smoke That Cigarette
TTITLE13=T. G. Sheppard - Only One You
TTITLE14=Mickey Gilley - Your Memory Ain't What It Used To Be
TTITLE15=Rockin' Sidney - My Toot Toot
EXTD=3721012B YEAR: 1999
EXTT0=South
EXTT1=Leo/Waldmann
EXTT2=Braddock/Putnam
EXTT3=Kennerley
EXTT4=Bruce/Bruce/Borchers
EXTT5=Whitson/Haggard
EXTT6=Allen
EXTT7=Mattea
EXTT8=Bellamy
EXTT9=Fain/Webster
EXTT10=Dylan
EXTT11=Tillis
EXTT12=Travis/Williams
EXTT13=Garvin/Jones
EXTT14=Gilley
EXTT15=Simien
PLAYORDER=
